<?xml version="1.0" encoding="UTF-8"?>
<!DOCTYPE svg PUBLIC "-//W3C//DTD SVG 1.1//EN" "http://www.w3.org/Graphics/SVG/1.1/DTD/svg11.dtd">
<svg xmlns="http://www.w3.org/2000/svg" version="1.1" width="267px" height="274px" style="shape-rendering:geometricPrecision; text-rendering:geometricPrecision; image-rendering:optimizeQuality; fill-rule:evenodd; clip-rule:evenodd" xmlns:xlink="http://www.w3.org/1999/xlink">
    <g><path fill="#f3fafc" d="M -0.5,-0.5 C 88.5,-0.5 177.5,-0.5 266.5,-0.5C 266.5,90.8333 266.5,182.167 266.5,273.5C 177.5,273.5 88.5,273.5 -0.5,273.5C -0.5,182.167 -0.5,90.8333 -0.5,-0.5 Z"/></g>
    <g><path fill="#072a48" d="M 175.5,66.5 C 172.5,70.1667 169.167,73.5 165.5,76.5C 163.211,74.552 160.878,72.552 158.5,70.5C 158.167,69.5 157.5,68.8333 156.5,68.5C 149.908,62.1827 143.241,55.8493 136.5,49.5C 129.813,55.8549 123.146,62.1882 116.5,68.5C 114.126,71.874 111.126,74.5407 107.5,76.5C 103.833,73.5 100.5,70.1667 97.5,66.5C 110.146,53.1877 123.146,40.1877 136.5,27.5C 149.854,40.1877 162.854,53.1877 175.5,66.5 Z"/></g>
    <g><path fill="#f6f9fa" d="M 156.5,68.5 C 156.631,69.2389 156.464,69.9056 156,70.5C 152.941,73.4005 149.774,76.0672 146.5,78.5C 143.521,74.8544 140.188,71.521 136.5,68.5C 132.478,71.5486 129.144,75.2153 126.5,79.5C 122.434,76.4372 119.101,72.7706 116.5,68.5C 123.146,62.1882 129.813,55.8549 136.5,49.5C 143.241,55.8493 149.908,62.1827 156.5,68.5 Z"/></g>
    <g><path fill="#23c4e7" d="M 175.5,66.5 C 178.964,69.4625 182.297,72.6291 185.5,76C 179.298,82.3694 172.965,88.5361 166.5,94.5C 164.961,91.7279 165.627,89.5613 168.5,88C 166.231,86.2759 163.897,86.2759 161.5,88C 157.63,91.7023 153.963,95.5357 150.5,99.5C 149.167,100.167 148.167,101.167 147.5,102.5C 147.5,103.167 147.167,103.5 146.5,103.5C 145.833,101.833 145.167,100.167 144.5,98.5C 149.167,93.5 153.833,88.5 158.5,83.5C 161.167,81.5 163.5,79.1667 165.5,76.5C 169.167,73.5 172.5,70.1667 175.5,66.5 Z"/></g>
    <g><path fill="#082846" d="M 146.5,78.5 C 145.925,80.4113 144.925,82.078 143.5,83.5C 141.833,84.5 140.5,85.8333 139.5,87.5C 138.065,89.4011 136.398,89.7345 134.5,88.5C 131.833,85.5 129.167,82.5 126.5,79.5C 129.144,75.2153 132.478,71.5486 136.5,68.5C 140.188,71.521 143.521,74.8544 146.5,78.5 Z"/></g>
    <g><path fill="#035a8b" d="M 158.5,70.5 C 160.878,72.552 163.211,74.552 165.5,76.5C 163.5,79.1667 161.167,81.5 158.5,83.5C 158.44,82.9569 158.107,82.6236 157.5,82.5C 154.147,84.2011 150.814,85.8678 147.5,87.5C 144.965,86.4967 142.798,87.1633 141,89.5C 140.283,88.9558 139.783,88.2891 139.5,87.5C 140.5,85.8333 141.833,84.5 143.5,83.5C 143.47,84.4972 143.97,85.1639 145,85.5C 149.309,82.3586 153.476,79.0253 157.5,75.5C 158.452,73.9547 158.785,72.288 158.5,70.5 Z"/></g>
    <g><path fill="#10739f" d="M 156.5,68.5 C 157.5,68.8333 158.167,69.5 158.5,70.5C 158.785,72.288 158.452,73.9547 157.5,75.5C 153.476,79.0253 149.309,82.3586 145,85.5C 143.97,85.1639 143.47,84.4972 143.5,83.5C 144.925,82.078 145.925,80.4113 146.5,78.5C 149.774,76.0672 152.941,73.4005 156,70.5C 156.464,69.9056 156.631,69.2389 156.5,68.5 Z"/></g>
    <g><path fill="#0a2c4c" d="M 81.5,81.5 C 85.4023,83.8926 88.9023,86.8926 92,90.5C 92.6667,91.5 92.6667,92.5 92,93.5C 83.5,102 75,110.5 66.5,119C 75,127.5 83.5,136 92,144.5C 92.6667,145.5 92.6667,146.5 92,147.5C 88.6558,150.345 85.4891,153.345 82.5,156.5C 69.7533,144.084 57.0866,131.751 44.5,119.5C 56.8546,106.813 69.1879,94.1459 81.5,81.5 Z"/></g>
    <g><path fill="#092b4b" d="M 189.5,81.5 C 203.094,93.4257 216.094,106.092 228.5,119.5C 216.138,132.196 203.471,144.53 190.5,156.5C 187.662,153.162 184.495,150.162 181,147.5C 180.333,146.5 180.333,145.5 181,144.5C 189.543,136.291 197.71,127.791 205.5,119C 197.21,109.708 188.543,100.708 179.5,92C 183.037,88.6309 186.371,85.1309 189.5,81.5 Z"/></g>
    <g><path fill="#056290" d="M 116.5,68.5 C 119.101,72.7706 122.434,76.4372 126.5,79.5C 129.167,82.5 131.833,85.5 134.5,88.5C 132.532,90.315 130.198,90.815 127.5,90C 124.382,86.2816 120.715,83.2816 116.5,81C 114.482,80.4954 112.482,79.9954 110.5,79.5C 109.167,78.8333 108.167,77.8333 107.5,76.5C 111.126,74.5407 114.126,71.874 116.5,68.5 Z"/></g>
    <g><path fill="#25c6e7" d="M 97.5,66.5 C 100.5,70.1667 103.833,73.5 107.5,76.5C 108.167,77.8333 109.167,78.8333 110.5,79.5C 116.5,85.8333 122.5,92.1667 128.5,98.5C 127.058,99.8195 126.392,101.486 126.5,103.5C 125.833,103.5 125.5,103.167 125.5,102.5C 124.5,100.833 123.167,99.5 121.5,98.5C 117.537,94.0355 113.37,89.7022 109,85.5C 107.979,87.8618 106.812,90.5285 105.5,93.5C 98.9104,88.5805 92.9104,82.9138 87.5,76.5C 90.521,72.8123 93.8544,69.4789 97.5,66.5 Z"/></g>
    <g><path fill="#03436c" d="M 110.5,79.5 C 112.482,79.9954 114.482,80.4954 116.5,81C 120.715,83.2816 124.382,86.2816 127.5,90C 130.198,90.815 132.532,90.315 134.5,88.5C 136.398,89.7345 138.065,89.4011 139.5,87.5C 139.783,88.2891 140.283,88.9558 141,89.5C 142.798,87.1633 144.965,86.4967 147.5,87.5C 150.814,85.8678 154.147,84.2011 157.5,82.5C 158.107,82.6236 158.44,82.9569 158.5,83.5C 153.833,88.5 149.167,93.5 144.5,98.5C 141.853,96.1891 139.186,93.8558 136.5,91.5C 133.814,93.8558 131.147,96.1891 128.5,98.5C 122.5,92.1667 116.5,85.8333 110.5,79.5 Z"/></g>
    <g><path fill="#0fb0d9" d="M 166.5,94.5 C 165.833,95.5 165.167,96.5 164.5,97.5C 161.703,99.795 159.036,102.295 156.5,105C 155.552,105.483 154.552,105.649 153.5,105.5C 153.969,102.607 152.969,100.607 150.5,99.5C 153.963,95.5357 157.63,91.7023 161.5,88C 163.897,86.2759 166.231,86.2759 168.5,88C 165.627,89.5613 164.961,91.7279 166.5,94.5 Z"/></g>
    <g><path fill="#1ab0d9" d="M 121.5,98.5 C 120.5,98.5 119.5,98.5 118.5,98.5C 118.915,100.948 117.915,102.281 115.5,102.5C 112.932,101.441 110.765,99.7744 109,97.5C 108.617,98.056 108.117,98.3893 107.5,98.5C 107.608,96.4862 106.942,94.8195 105.5,93.5C 106.812,90.5285 107.979,87.8618 109,85.5C 113.37,89.7022 117.537,94.0355 121.5,98.5 Z"/></g>
    <g><path fill="#d2dce0" d="M 144.5,98.5 C 145.167,100.167 145.833,101.833 146.5,103.5C 143.521,107.146 140.188,110.479 136.5,113.5C 132.812,110.479 129.479,107.146 126.5,103.5C 126.392,101.486 127.058,99.8195 128.5,98.5C 131.147,96.1891 133.814,93.8558 136.5,91.5C 139.186,93.8558 141.853,96.1891 144.5,98.5 Z"/></g>
    <g><path fill="#0988b6" d="M 164.5,97.5 C 165.028,98.8474 165.195,100.181 165,101.5C 161.835,104.49 158.668,107.49 155.5,110.5C 154.609,109.89 153.609,109.557 152.5,109.5C 152.031,106.357 150.364,104.023 147.5,102.5C 148.167,101.167 149.167,100.167 150.5,99.5C 152.969,100.607 153.969,102.607 153.5,105.5C 154.552,105.649 155.552,105.483 156.5,105C 159.036,102.295 161.703,99.795 164.5,97.5 Z"/></g>
    <g><path fill="#0d92bc" d="M 121.5,98.5 C 123.167,99.5 124.5,100.833 125.5,102.5C 122.636,104.023 120.969,106.357 120.5,109.5C 118.246,110.415 116.246,111.748 114.5,113.5C 112.175,112.345 111.008,110.345 111,107.5C 108.495,105.655 106.662,103.322 105.5,100.5C 105.833,99.5 106.5,98.8333 107.5,98.5C 108.117,98.3893 108.617,98.056 109,97.5C 110.765,99.7744 112.932,101.441 115.5,102.5C 117.915,102.281 118.915,100.948 118.5,98.5C 119.5,98.5 120.5,98.5 121.5,98.5 Z"/></g>
    <g><path fill="#24bbe1" d="M 164.5,97.5 C 168.5,100.833 172.167,104.5 175.5,108.5C 171.095,111.396 167.095,114.896 163.5,119C 167.095,123.104 171.095,126.604 175.5,129.5C 171.989,133.177 168.656,137.011 165.5,141C 171.665,148.331 178.332,155.165 185.5,161.5C 182.479,165.188 179.146,168.521 175.5,171.5C 172.221,167.554 168.554,163.888 164.5,160.5C 157.833,153.5 151.167,146.5 144.5,139.5C 145.167,138.167 145.833,136.833 146.5,135.5C 146.833,135.5 147.167,135.5 147.5,135.5C 150.426,138.317 153.426,141.151 156.5,144C 158.776,143.426 161.109,143.592 163.5,144.5C 161.827,138.143 158.161,133.143 152.5,129.5C 151.833,129.5 151.5,129.167 151.5,128.5C 155.642,126.88 159.142,124.214 162,120.5C 162.032,117.332 160.532,114.999 157.5,113.5C 156.833,112.5 156.167,111.5 155.5,110.5C 158.668,107.49 161.835,104.49 165,101.5C 165.195,100.181 165.028,98.8474 164.5,97.5 Z"/></g>
    <g><path fill="#0a2946" d="M 125.5,102.5 C 125.5,103.167 125.833,103.5 126.5,103.5C 129.479,107.146 132.812,110.479 136.5,113.5C 140.188,110.479 143.521,107.146 146.5,103.5C 147.167,103.5 147.5,103.167 147.5,102.5C 150.364,104.023 152.031,106.357 152.5,109.5C 149.536,111.962 146.703,114.629 144,117.5C 143.253,119.928 144.086,121.594 146.5,122.5C 148.167,124.5 149.833,126.5 151.5,128.5C 151.5,129.167 151.833,129.5 152.5,129.5C 151.581,132.089 149.914,134.089 147.5,135.5C 147.167,135.5 146.833,135.5 146.5,135.5C 143.521,131.854 140.188,128.521 136.5,125.5C 132.812,128.521 129.479,131.854 126.5,135.5C 126.167,135.5 125.833,135.5 125.5,135.5C 123.086,134.089 121.419,132.089 120.5,129.5C 123.678,126.155 126.678,122.655 129.5,119C 127.012,115.345 124.012,112.178 120.5,109.5C 120.969,106.357 122.636,104.023 125.5,102.5 Z"/></g>
    <g><path fill="#bfcacf" d="M 152.5,109.5 C 153.609,109.557 154.609,109.89 155.5,110.5C 156.167,111.5 156.833,112.5 157.5,113.5C 156.448,113.351 155.448,113.517 154.5,114C 152.616,116.884 150.116,119.051 147,120.5C 146.536,121.094 146.369,121.761 146.5,122.5C 144.086,121.594 143.253,119.928 144,117.5C 146.703,114.629 149.536,111.962 152.5,109.5 Z"/></g>
    <g><path fill="#082a47" d="M 97.5,108.5 C 101.905,111.396 105.905,114.896 109.5,119C 105.905,123.104 101.905,126.604 97.5,129.5C 93.6558,126.489 90.3224,122.989 87.5,119C 90.3224,115.011 93.6558,111.511 97.5,108.5 Z"/></g>
    <g><path fill="#092b4a" d="M 175.5,108.5 C 179.344,111.511 182.678,115.011 185.5,119C 182.678,122.989 179.344,126.489 175.5,129.5C 171.095,126.604 167.095,123.104 163.5,119C 167.095,114.896 171.095,111.396 175.5,108.5 Z"/></g>
    <g><path fill="#e1eaeb" d="M 157.5,113.5 C 160.532,114.999 162.032,117.332 162,120.5C 159.142,124.214 155.642,126.88 151.5,128.5C 149.833,126.5 148.167,124.5 146.5,122.5C 146.369,121.761 146.536,121.094 147,120.5C 150.116,119.051 152.616,116.884 154.5,114C 155.448,113.517 156.448,113.351 157.5,113.5 Z"/></g>
    <g><path fill="#20c1e5" d="M 105.5,100.5 C 106.662,103.322 108.495,105.655 111,107.5C 111.008,110.345 112.175,112.345 114.5,113.5C 112.984,115.186 111.65,117.019 110.5,119C 113.322,122.655 116.322,126.155 119.5,129.5C 117.833,131.5 116.167,133.5 114.5,135.5C 112.167,137.5 109.833,139.5 107.5,141.5C 104.566,137.227 101.233,133.227 97.5,129.5C 101.905,126.604 105.905,123.104 109.5,119C 105.905,114.896 101.905,111.396 97.5,108.5C 99.8333,105.5 102.5,102.833 105.5,100.5 Z"/></g>
    <g><path fill="#d7e1e4" d="M 120.5,109.5 C 124.012,112.178 127.012,115.345 129.5,119C 126.678,122.655 123.678,126.155 120.5,129.5C 120.167,129.5 119.833,129.5 119.5,129.5C 116.322,126.155 113.322,122.655 110.5,119C 111.65,117.019 112.984,115.186 114.5,113.5C 116.246,111.748 118.246,110.415 120.5,109.5 Z"/></g>
    <g><path fill="#d5dddf" d="M 146.5,135.5 C 145.833,136.833 145.167,138.167 144.5,139.5C 141.853,141.811 139.186,144.144 136.5,146.5C 133.814,144.144 131.147,141.811 128.5,139.5C 127.833,138.167 127.167,136.833 126.5,135.5C 129.479,131.854 132.812,128.521 136.5,125.5C 140.188,128.521 143.521,131.854 146.5,135.5 Z"/></g>
    <g><path fill="#036b99" d="M 119.5,129.5 C 119.833,129.5 120.167,129.5 120.5,129.5C 121.419,132.089 123.086,134.089 125.5,135.5C 124.205,136.488 122.872,137.488 121.5,138.5C 118.364,139.021 116.03,138.021 114.5,135.5C 116.167,133.5 117.833,131.5 119.5,129.5 Z"/></g>
    <g><path fill="#037aab" d="M 152.5,129.5 C 158.161,133.143 161.827,138.143 163.5,144.5C 161.109,143.592 158.776,143.426 156.5,144C 153.426,141.151 150.426,138.317 147.5,135.5C 149.914,134.089 151.581,132.089 152.5,129.5 Z"/></g>
    <g><path fill="#15a7d0" d="M 114.5,135.5 C 116.03,138.021 118.364,139.021 121.5,138.5C 116.499,145.849 109.832,150.849 101.5,153.5C 100.268,152.855 98.9346,152.689 97.5,153C 98.056,152.617 98.3893,152.117 98.5,151.5C 101.529,148.141 104.529,144.808 107.5,141.5C 109.833,139.5 112.167,137.5 114.5,135.5 Z"/></g>
    <g><path fill="#085784" d="M 162.5,162.5 C 160.833,164.833 158.833,166.833 156.5,168.5C 153.5,164.833 150.167,161.5 146.5,158.5C 144.573,155.233 142.239,152.233 139.5,149.5C 141.51,148.307 143.676,148.307 146,149.5C 151.037,151.865 155.537,155.032 159.5,159C 160.448,159.483 161.448,159.649 162.5,159.5C 162.5,160.5 162.5,161.5 162.5,162.5 Z"/></g>
    <g><path fill="#20bfe3" d="M 125.5,135.5 C 125.833,135.5 126.167,135.5 126.5,135.5C 127.167,136.833 127.833,138.167 128.5,139.5C 121.833,146.5 115.167,153.5 108.5,160.5C 104.5,163.833 100.833,167.5 97.5,171.5C 94.0359,168.538 90.7025,165.371 87.5,162C 91.0827,158.247 94.7494,154.747 98.5,151.5C 98.3893,152.117 98.056,152.617 97.5,153C 98.9346,152.689 100.268,152.855 101.5,153.5C 109.832,150.849 116.499,145.849 121.5,138.5C 122.872,137.488 124.205,136.488 125.5,135.5 Z"/></g>
    <g><path fill="#072946" d="M 139.5,149.5 C 142.239,152.233 144.573,155.233 146.5,158.5C 143.173,161.8 139.84,165.133 136.5,168.5C 133.506,164.839 130.173,161.506 126.5,158.5C 127.754,155.907 129.42,153.573 131.5,151.5C 133.461,150.54 135.127,149.207 136.5,147.5C 137.518,148.193 138.518,148.859 139.5,149.5 Z"/></g>
    <g><path fill="#023c60" d="M 128.5,139.5 C 131.147,141.811 133.814,144.144 136.5,146.5C 139.186,144.144 141.853,141.811 144.5,139.5C 151.167,146.5 157.833,153.5 164.5,160.5C 164.167,161.5 163.5,162.167 162.5,162.5C 162.5,161.5 162.5,160.5 162.5,159.5C 161.448,159.649 160.448,159.483 159.5,159C 155.537,155.032 151.037,151.865 146,149.5C 143.676,148.307 141.51,148.307 139.5,149.5C 138.518,148.859 137.518,148.193 136.5,147.5C 135.127,149.207 133.461,150.54 131.5,151.5C 130.54,150.485 129.373,150.485 128,151.5C 122.771,155.203 117.605,159.036 112.5,163C 113.252,163.671 113.586,164.504 113.5,165.5C 111.5,164.167 109.833,162.5 108.5,160.5C 115.167,153.5 121.833,146.5 128.5,139.5 Z"/></g>
    <g><path fill="#0d5b87" d="M 131.5,151.5 C 129.42,153.573 127.754,155.907 126.5,158.5C 122.833,161.5 119.5,164.833 116.5,168.5C 115.167,167.833 114.167,166.833 113.5,165.5C 113.586,164.504 113.252,163.671 112.5,163C 117.605,159.036 122.771,155.203 128,151.5C 129.373,150.485 130.54,150.485 131.5,151.5 Z"/></g>
    <g><path fill="#f4f7f8" d="M 126.5,158.5 C 130.173,161.506 133.506,164.839 136.5,168.5C 139.84,165.133 143.173,161.8 146.5,158.5C 150.167,161.5 153.5,164.833 156.5,168.5C 150.188,175.479 143.521,182.146 136.5,188.5C 129.479,182.146 122.812,175.479 116.5,168.5C 119.5,164.833 122.833,161.5 126.5,158.5 Z"/></g>
    <g><path fill="#092946" d="M 108.5,160.5 C 109.833,162.5 111.5,164.167 113.5,165.5C 114.167,166.833 115.167,167.833 116.5,168.5C 122.812,175.479 129.479,182.146 136.5,188.5C 143.521,182.146 150.188,175.479 156.5,168.5C 158.833,166.833 160.833,164.833 162.5,162.5C 163.5,162.167 164.167,161.5 164.5,160.5C 168.554,163.888 172.221,167.554 175.5,171.5C 162.854,184.812 149.854,197.812 136.5,210.5C 123.173,197.839 110.173,184.839 97.5,171.5C 100.833,167.5 104.5,163.833 108.5,160.5 Z"/></g>
    <g><path fill="#87949f" d="M 63.5,219.5 C 55.1667,219.5 46.8333,219.5 38.5,219.5C 38.5,221.5 38.5,223.5 38.5,225.5C 37.5318,223.393 37.1984,221.059 37.5,218.5C 46.3494,218.174 55.0161,218.507 63.5,219.5 Z"/></g>
    <g><path fill="#0c2a45" d="M 136.5,219.5 C 142.952,219.084 149.285,219.584 155.5,221C 158.167,224.667 158.167,228.333 155.5,232C 159.753,235.42 160.587,239.587 158,244.5C 157.097,245.701 155.931,246.535 154.5,247C 148.509,247.499 142.509,247.666 136.5,247.5C 136.5,238.167 136.5,228.833 136.5,219.5 Z"/></g>
    <g><path fill="#eef1f2" d="M 142.5,225.5 C 145.247,225.187 147.914,225.52 150.5,226.5C 151.711,227.72 151.711,228.887 150.5,230C 147.854,230.497 145.187,230.664 142.5,230.5C 142.5,228.833 142.5,227.167 142.5,225.5 Z"/></g>
    <g><path fill="#132d4a" d="M 182.5,247.5 C 179.921,247.917 177.754,247.25 176,245.5C 172.757,247.263 169.257,247.929 165.5,247.5C 161.256,244.733 160.422,241.066 163,236.5C 164.419,235.54 165.919,234.707 167.5,234C 170.432,233.689 173.098,233.522 175.5,233.5C 173.348,230.367 170.515,229.7 167,231.5C 163.323,230.347 162.823,228.514 165.5,226C 172.254,223.255 177.754,224.755 182,230.5C 182.499,236.157 182.666,241.824 182.5,247.5 Z"/></g>
    <g><path fill="#072440" d="M 207.5,231.5 C 207.5,236.833 207.5,242.167 207.5,247.5C 205.833,247.5 204.167,247.5 202.5,247.5C 202.818,242.968 202.485,238.634 201.5,234.5C 199.678,231.5 197.178,230.833 194,232.5C 192.612,237.372 192.112,242.372 192.5,247.5C 190.5,247.5 188.5,247.5 186.5,247.5C 186.5,240.167 186.5,232.833 186.5,225.5C 189.144,225.16 191.477,225.827 193.5,227.5C 196.549,225.534 199.882,225.034 203.5,226C 205.819,227.147 207.152,228.981 207.5,231.5 Z"/></g>
    <g><path fill="#132e48" d="M 122.5,220.5 C 124.5,220.5 126.5,220.5 128.5,220.5C 128.5,222.167 128.5,223.833 128.5,225.5C 130.167,225.5 131.833,225.5 133.5,225.5C 133.5,227.5 133.5,229.5 133.5,231.5C 132.167,231.5 130.833,231.5 129.5,231.5C 129.5,234.833 129.5,238.167 129.5,241.5C 130.833,241.5 132.167,241.5 133.5,241.5C 133.5,243.5 133.5,245.5 133.5,247.5C 129.993,248.006 126.826,247.34 124,245.5C 122.691,240.934 122.191,236.267 122.5,231.5C 121.5,231.5 120.5,231.5 119.5,231.5C 119.649,230.448 119.483,229.448 119,228.5C 118.077,229.759 117.243,231.092 116.5,232.5C 114.293,230.69 111.959,230.357 109.5,231.5C 112.883,233.611 116.383,235.611 120,237.5C 121.458,241.781 120.292,244.947 116.5,247C 111.649,248.258 107.315,247.424 103.5,244.5C 104.5,243.167 105.5,241.833 106.5,240.5C 108.93,242.571 111.597,242.904 114.5,241.5C 110.765,239.883 107.265,237.883 104,235.5C 102.902,226.607 106.736,223.44 115.5,226C 116.766,226.309 117.933,226.809 119,227.5C 119.71,226.027 120.876,225.36 122.5,225.5C 122.5,223.833 122.5,222.167 122.5,220.5 Z"/></g>
    <g><path fill="#0f2c48" d="M 63.5,219.5 C 63.5,221.5 63.5,223.5 63.5,225.5C 60.5,225.5 57.5,225.5 54.5,225.5C 54.5,232.833 54.5,240.167 54.5,247.5C 52.1667,247.5 49.8333,247.5 47.5,247.5C 47.5,240.167 47.5,232.833 47.5,225.5C 44.5,225.5 41.5,225.5 38.5,225.5C 38.5,223.5 38.5,221.5 38.5,219.5C 46.8333,219.5 55.1667,219.5 63.5,219.5 Z"/></g>
    <g><path fill="#0f2b46" d="M 233.5,246.5 C 231.393,247.468 229.059,247.802 226.5,247.5C 224.567,245.063 222.4,242.729 220,240.5C 218.648,242.594 218.148,244.927 218.5,247.5C 216.167,247.5 213.833,247.5 211.5,247.5C 211.5,237.167 211.5,226.833 211.5,216.5C 213.833,216.5 216.167,216.5 218.5,216.5C 218.334,222.176 218.501,227.843 219,233.5C 220.793,230.705 222.96,228.205 225.5,226C 228.167,225.333 230.833,225.333 233.5,226C 230.317,229.015 227.317,232.182 224.5,235.5C 227.902,238.895 230.902,242.562 233.5,246.5 Z"/></g>
    <g><path fill="#052544" d="M 76.5,225.5 C 77.5,225.5 78.5,225.5 79.5,225.5C 79.5,227.5 79.5,229.5 79.5,231.5C 75.7273,230.822 72.894,232.156 71,235.5C 70.5012,239.486 70.3345,243.486 70.5,247.5C 68.5,247.5 66.5,247.5 64.5,247.5C 64.5,240.167 64.5,232.833 64.5,225.5C 66.5,225.5 68.5,225.5 70.5,225.5C 70.3433,226.873 70.51,228.207 71,229.5C 72.1474,227.181 73.9807,225.848 76.5,225.5 Z"/></g>
    <g><path fill="#122c49" d="M 86.5,225.5 C 86.3343,229.846 86.501,234.179 87,238.5C 89.1775,242.065 91.8442,242.399 95,239.5C 95.4992,234.845 95.6658,230.179 95.5,225.5C 97.8333,225.5 100.167,225.5 102.5,225.5C 102.5,232.833 102.5,240.167 102.5,247.5C 99.6062,247.958 97.1062,247.291 95,245.5C 91.8169,247.523 88.3169,248.023 84.5,247C 82.9512,245.786 81.7845,244.286 81,242.5C 80.5006,236.843 80.3339,231.176 80.5,225.5C 82.5,225.5 84.5,225.5 86.5,225.5 Z"/></g>
    <g><path fill="#e3ecef" d="M 86.5,225.5 C 84.5,225.5 82.5,225.5 80.5,225.5C 80.3339,231.176 80.5006,236.843 81,242.5C 81.7845,244.286 82.9512,245.786 84.5,247C 88.3169,248.023 91.8169,247.523 95,245.5C 97.1062,247.291 99.6062,247.958 102.5,247.5C 99.7719,248.205 96.9386,248.872 94,249.5C 90.5512,248.39 87.0512,248.39 83.5,249.5C 83.5,250.5 83.5,251.5 83.5,252.5C 82.5,252.5 81.5,252.5 80.5,252.5C 80.822,250.278 80.1554,248.444 78.5,247C 75.7395,246.278 73.0728,246.445 70.5,247.5C 70.3345,243.486 70.5012,239.486 71,235.5C 72.894,232.156 75.7273,230.822 79.5,231.5C 79.5,229.5 79.5,227.5 79.5,225.5C 78.5,225.5 77.5,225.5 76.5,225.5C 77.2341,224.292 77.5674,222.959 77.5,221.5C 78.5,221.5 79.5,221.5 80.5,221.5C 80.5,222.5 80.5,223.5 80.5,224.5C 82.7354,224.205 84.7354,224.539 86.5,225.5 Z"/></g>
    <g><path fill="#eef2f3" d="M 142.5,236.5 C 145.833,236.5 149.167,236.5 152.5,236.5C 152.714,238.144 152.38,239.644 151.5,241C 148.518,241.498 145.518,241.665 142.5,241.5C 142.5,239.833 142.5,238.167 142.5,236.5 Z"/></g>
    <g><path fill="#4e6072" d="M 207.5,231.5 C 208.489,236.975 208.822,242.642 208.5,248.5C 206.167,248.5 203.833,248.5 201.5,248.5C 201.5,243.833 201.5,239.167 201.5,234.5C 202.485,238.634 202.818,242.968 202.5,247.5C 204.167,247.5 205.833,247.5 207.5,247.5C 207.5,242.167 207.5,236.833 207.5,231.5 Z"/></g>
    <g><path fill="#e2e7e8" d="M 169.5,237.5 C 171.199,237.34 172.866,237.506 174.5,238C 175.925,239.714 175.592,241.047 173.5,242C 168.036,243.39 166.703,241.89 169.5,237.5 Z"/></g>
    <g><path fill="#b3bec6" d="M 182.5,247.5 C 176.833,248.833 171.167,248.833 165.5,247.5C 169.257,247.929 172.757,247.263 176,245.5C 177.754,247.25 179.921,247.917 182.5,247.5 Z"/></g>
    <g><path fill="#97a4ae" d="M 233.5,246.5 C 234.043,246.56 234.376,246.893 234.5,247.5C 231.691,248.8 229.024,248.8 226.5,247.5C 229.059,247.802 231.393,247.468 233.5,246.5 Z"/></g>
</svg>
